<svg width="20" height="20" viewBox="0 0 20 20" fill="none" xmlns="http://www.w3.org/2000/svg">
<path d="M9.99984 6.25004C9.99984 7.86087 8.694 9.16671 7.08317 9.16671C5.47234 9.16671 4.1665 7.86087 4.1665 6.25004C4.1665 4.63921 5.47234 3.33337 7.08317 3.33337C8.694 3.33337 9.99984 4.63921 9.99984 6.25004Z" stroke="#0062FF" stroke-width="1.125"/>
<path d="M11.25 9.16671C12.8608 9.16671 14.1667 7.86087 14.1667 6.25004C14.1667 4.63921 12.8608 3.33337 11.25 3.33337" stroke="#0062FF" stroke-width="1.125" stroke-linecap="round"/>
<path d="M10.9523 16.6666H3.21412C2.3594 16.6666 1.6665 16.027 1.6665 15.238C1.6665 13.2656 3.39874 11.6666 5.53555 11.6666H8.63075C9.50175 11.6666 10.3056 11.9323 10.9523 12.3806" stroke="#0062FF" stroke-width="1.125" stroke-linecap="round" stroke-linejoin="round"/>
<path d="M15.8335 11.6666V16.6666M18.3335 14.1666H13.3335" stroke="#0062FF" stroke-width="1.125" stroke-linecap="round"/>
</svg>
