<svg width="20" height="20" viewBox="0 0 20 20" fill="none" xmlns="http://www.w3.org/2000/svg">
<path d="M14.1667 1.66663V3.33329M10 1.66663V3.33329M5.83337 1.66663V3.33329" stroke="#0062FF" stroke-width="1.125" stroke-linecap="round" stroke-linejoin="round"/>
<path d="M2.91663 8.33333C2.91663 5.58347 2.91663 4.20854 3.7709 3.35427C4.62517 2.5 6.0001 2.5 8.74996 2.5H11.25C13.9998 2.5 15.3747 2.5 16.229 3.35427C17.0833 4.20854 17.0833 5.58347 17.0833 8.33333V12.5C17.0833 15.2498 17.0833 16.6247 16.229 17.4791C15.3747 18.3333 13.9998 18.3333 11.25 18.3333H8.74996C6.0001 18.3333 4.62517 18.3333 3.7709 17.4791C2.91663 16.6247 2.91663 15.2498 2.91663 12.5V8.33333Z" stroke="#0062FF" stroke-width="1.125" stroke-linecap="round" stroke-linejoin="round"/>
<path d="M11.25 13.3334H14.1667" stroke="#0062FF" stroke-width="1.125" stroke-linecap="round"/>
<path d="M11.25 7.5H14.1667" stroke="#0062FF" stroke-width="1.125" stroke-linecap="round"/>
<path d="M5.83337 8.33329C5.83337 8.33329 6.25004 8.33329 6.66671 9.16663C6.66671 9.16663 7.99024 7.08329 9.16671 6.66663" stroke="#0062FF" stroke-width="1.125" stroke-linecap="round" stroke-linejoin="round"/>
<path d="M5.83337 14.1667C5.83337 14.1667 6.25004 14.1667 6.66671 15C6.66671 15 7.99024 12.9167 9.16671 12.5" stroke="#0062FF" stroke-width="1.125" stroke-linecap="round" stroke-linejoin="round"/>
</svg>
