<svg width="20" height="20" viewBox="0 0 20 20" fill="none" xmlns="http://www.w3.org/2000/svg">
<path d="M14.7502 17.7792C13.7735 17.9165 12.4998 17.9165 10.7918 17.9165H9.2085C5.84974 17.9165 4.17036 17.9165 3.12693 16.873C2.0835 15.8296 2.0835 14.1502 2.0835 10.7915V9.20816C2.0835 5.84937 2.0835 4.16999 3.12693 3.12655C4.17036 2.08313 5.84974 2.08313 9.2085 2.08313H10.7918C14.1506 2.08313 15.83 2.08313 16.8734 3.12655C17.9168 4.16999 17.9168 5.84937 17.9168 9.20816V10.7915C17.9168 11.7983 17.9168 12.6542 17.8887 13.3873C17.8662 13.9749 17.8549 14.2687 17.6324 14.3784C17.4099 14.4882 17.1611 14.3122 16.6633 13.96L15.5418 13.1665" stroke="#0062FF" stroke-width="1.125" stroke-linecap="round" stroke-linejoin="round"/>
<path d="M12.4543 10.329C12.307 10.8513 11.6109 11.2204 10.2189 11.9585C8.87317 12.672 8.20034 13.0289 7.6581 12.8855C7.43392 12.8261 7.22967 12.7135 7.06494 12.5584C6.6665 12.1832 6.6665 11.4555 6.6665 10C6.6665 8.54462 6.6665 7.81686 7.06494 7.44166C7.22967 7.28655 7.43392 7.17394 7.6581 7.11465C8.20034 6.97124 8.87317 7.32801 10.2189 8.04156C11.6109 8.77971 12.307 9.14879 12.4543 9.67104C12.515 9.88662 12.515 10.1135 12.4543 10.329Z" stroke="#0062FF" stroke-width="1.125" stroke-linejoin="round"/>
</svg>
