<svg width="20" height="20" viewBox="0 0 20 20" fill="none" xmlns="http://www.w3.org/2000/svg">
<path d="M16.7361 8.74994L17.7379 9.35102C17.9352 9.46944 17.9991 9.72535 17.8808 9.92269C17.8456 9.98135 17.7966 10.0304 17.7379 10.0656L10.0001 14.7083L2.26217 10.0656C2.06485 9.94719 2.00086 9.69127 2.11925 9.49394C2.15445 9.43527 2.20352 9.38619 2.26217 9.35102L3.26391 8.74994L10.0001 12.7916L16.7361 8.74994ZM16.7361 12.6666L17.7379 13.2677C17.9352 13.3861 17.9991 13.642 17.8808 13.8394C17.8456 13.898 17.7966 13.9471 17.7379 13.9823L10.4287 18.3677C10.1649 18.5261 9.83515 18.5261 9.57131 18.3677L2.26217 13.9823C2.06485 13.8639 2.00086 13.6079 2.11925 13.4106C2.15445 13.3519 2.20352 13.3029 2.26217 13.2677L3.26391 12.6666L10.0001 16.7083L16.7361 12.6666ZM10.4287 1.09055L17.7379 5.47602C17.9352 5.59441 17.9991 5.85035 17.8808 6.04768C17.8456 6.10633 17.7966 6.15541 17.7379 6.19059L10.0001 10.8333L2.26217 6.19059C2.06485 6.0722 2.00086 5.81626 2.11925 5.61893C2.15445 5.56028 2.20352 5.51121 2.26217 5.47602L9.57131 1.09055C9.83515 0.932218 10.1649 0.932218 10.4287 1.09055Z" fill="#0062FF"/>
</svg>
