<svg width="20" height="20" viewBox="0 0 20 20" fill="none" xmlns="http://www.w3.org/2000/svg">
<path d="M10 6.66675V13.3334ZM13.3333 10.0001H6.66667Z" fill="white"/>
<path d="M10 6.66675V13.3334M13.3333 10.0001H6.66667" stroke="white" stroke-width="1.5" stroke-linecap="round" stroke-linejoin="round"/>
<path d="M2.08333 9.99992C2.08333 6.26797 2.08333 4.40199 3.24269 3.24262C4.40207 2.08325 6.26804 2.08325 9.99999 2.08325C13.7319 2.08325 15.5979 2.08325 16.7573 3.24262C17.9167 4.40199 17.9167 6.26797 17.9167 9.99992C17.9167 13.7318 17.9167 15.5978 16.7573 16.7573C15.5979 17.9166 13.7319 17.9166 9.99999 17.9166C6.26804 17.9166 4.40207 17.9166 3.24269 16.7573C2.08333 15.5978 2.08333 13.7318 2.08333 9.99992Z" stroke="white" stroke-width="1.5"/>
</svg>
