<svg width="32" height="32" viewBox="0 0 32 32" fill="none" xmlns="http://www.w3.org/2000/svg">
<g id="cancel-square">
<path id="Vector" d="M20 12L12 19.9995M20 20L12 12.0005" stroke="#A4ACB9" stroke-width="1.5" stroke-linecap="round" stroke-linejoin="round"/>
<path id="Vector_2" d="M3.3335 16C3.3335 10.0289 3.3335 7.04336 5.18848 5.18836C7.04348 3.33337 10.029 3.33337 16.0002 3.33337C21.9712 3.33337 24.9568 3.33337 26.8119 5.18836C28.6668 7.04336 28.6668 10.0289 28.6668 16C28.6668 21.9711 28.6668 24.9567 26.8119 26.8118C24.9568 28.6667 21.9712 28.6667 16.0002 28.6667C10.029 28.6667 7.04348 28.6667 5.18848 26.8118C3.3335 24.9567 3.3335 21.9711 3.3335 16Z" stroke="#A4ACB9" stroke-width="1.5"/>
</g>
</svg>
