<svg width="20" height="20" viewBox="0 0 20 20" fill="none" xmlns="http://www.w3.org/2000/svg">
<g id="doc-01">
<path id="Vector" d="M2.9165 10.8333V10.1635C2.9165 7.6907 2.9165 6.45429 3.30729 5.4668C3.93551 3.87928 5.26412 2.62706 6.94847 2.03494C7.9962 1.66663 9.308 1.66663 11.9317 1.66663C13.4309 1.66663 14.1805 1.66663 14.7792 1.87709C15.7417 2.21544 16.5008 2.931 16.8598 3.83816C17.0832 4.40243 17.0832 5.10895 17.0832 6.52198V10.0118V10.8333" stroke="#666D80" stroke-width="1.25" stroke-linecap="round" stroke-linejoin="round"/>
<path id="Vector_2" d="M2.9165 9.99996C2.9165 8.46588 4.16015 7.22218 5.69428 7.22218C6.2491 7.22218 6.9032 7.3194 7.44265 7.17486C7.92194 7.04643 8.2963 6.67206 8.42475 6.19276C8.56925 5.65333 8.47209 4.99923 8.47209 4.4444C8.47209 2.91028 9.71575 1.66663 11.2498 1.66663" stroke="#666D80" stroke-width="1.25" stroke-linecap="round" stroke-linejoin="round"/>
<path id="Vector_3" d="M17.0837 14.3497C17.0402 13.3577 16.3947 13.3334 15.519 13.3334C14.1701 13.3334 13.9464 13.6717 13.9464 15V16.6667C13.9464 17.995 14.1701 18.3334 15.519 18.3334C16.3947 18.3334 17.0402 18.309 17.0837 17.317M6.05448 15.8334C6.05448 17.2141 5.00104 18.3334 3.70154 18.3334C3.40833 18.3334 3.26172 18.3334 3.15252 18.2664C2.89107 18.106 2.91723 17.7814 2.91723 17.5V14.1667C2.91723 13.8854 2.89107 13.5607 3.15252 13.4004C3.26172 13.3334 3.40833 13.3334 3.70154 13.3334C5.00104 13.3334 6.05448 14.4526 6.05448 15.8334ZM10.0003 18.3334C9.26091 18.3334 8.89116 18.3334 8.66141 18.0893C8.43175 17.8452 8.43175 17.4524 8.43175 16.6667V15C8.43175 14.2144 8.43175 13.8215 8.66141 13.5775C8.89116 13.3334 9.26091 13.3334 10.0003 13.3334C10.7398 13.3334 11.1096 13.3334 11.3392 13.5775C11.569 13.8215 11.569 14.2144 11.569 15V16.6667C11.569 17.4524 11.569 17.8452 11.3392 18.0893C11.1096 18.3334 10.7398 18.3334 10.0003 18.3334Z" stroke="#666D80" stroke-width="1.25" stroke-linecap="round"/>
</g>
</svg>
