<svg width="20" height="20" viewBox="0 0 20 20" fill="none" xmlns="http://www.w3.org/2000/svg">
<g id="calendar-01">
<path id="Vector" d="M15 1.66663V3.33329M5 1.66663V3.33329" stroke="#666D80" stroke-width="1.25" stroke-linecap="round" stroke-linejoin="round"/>
<path id="Vector_2" d="M8.33333 14.1667L8.33333 11.1227C8.33333 10.963 8.21938 10.8334 8.07882 10.8334H7.5M11.3581 14.1667L12.4868 11.1244C12.5396 10.9821 12.4273 10.8334 12.2673 10.8334H10.8333" stroke="#666D80" stroke-width="1.25" stroke-linecap="round"/>
<path id="Vector_3" d="M2.0835 10.2027C2.0835 6.57162 2.0835 4.75607 3.12693 3.62803C4.17036 2.5 5.84974 2.5 9.2085 2.5H10.7918C14.1506 2.5 15.83 2.5 16.8734 3.62803C17.9168 4.75607 17.9168 6.57162 17.9168 10.2027V10.6307C17.9168 14.2617 17.9168 16.0773 16.8734 17.2053C15.83 18.3333 14.1506 18.3333 10.7918 18.3333H9.2085C5.84974 18.3333 4.17036 18.3333 3.12693 17.2053C2.0835 16.0773 2.0835 14.2617 2.0835 10.6307V10.2027Z" stroke="#666D80" stroke-width="1.25" stroke-linecap="round" stroke-linejoin="round"/>
<path id="Vector_4" d="M5 6.66663H15" stroke="#666D80" stroke-width="1.25" stroke-linecap="round" stroke-linejoin="round"/>
</g>
</svg>
