<svg width="20" height="20" viewBox="0 0 20 20" fill="none" xmlns="http://www.w3.org/2000/svg">
<g id="time-schedule">
<path id="Vector" d="M10 6.66663V9.99996L11.25 11.25" stroke="#666D80" stroke-width="1.25" stroke-linecap="round" stroke-linejoin="round"/>
<path id="Vector_2" d="M16.288 13.7111C17.6517 14.4475 18.3335 14.8157 18.3335 15.4166C18.3335 16.0176 17.6517 16.3858 16.288 17.1221L15.3594 17.6236C14.3122 18.1891 13.7886 18.4719 13.5368 18.2663C12.9202 17.7628 13.8808 16.4634 14.1171 16.0031C14.3566 15.5366 14.3523 15.2882 14.1171 14.8302C13.8808 14.3699 12.9202 13.0705 13.5368 12.567C13.7886 12.3614 14.3122 12.6441 15.3594 13.2096L16.288 13.7111Z" stroke="#666D80" stroke-width="1.25"/>
<path id="Vector_3" d="M10.8549 18.29C10.5738 18.3186 10.2885 18.3333 9.99984 18.3333C5.39746 18.3333 1.6665 14.6023 1.6665 9.99996C1.6665 5.39758 5.39746 1.66663 9.99984 1.66663C14.6022 1.66663 18.3332 5.39758 18.3332 9.99996C18.3332 10.5707 18.2758 11.1281 18.1665 11.6666" stroke="#666D80" stroke-width="1.25" stroke-linecap="round"/>
</g>
</svg>
