<svg width="20" height="21" viewBox="0 0 20 21" fill="none" xmlns="http://www.w3.org/2000/svg">
<g id="dashboard-speed-01">
<path id="Vector" d="M11.2502 11.3333L14.1668 8M11.6668 13C11.6668 13.9205 10.9207 14.6667 10.0002 14.6667C9.07966 14.6667 8.3335 13.9205 8.3335 13C8.3335 12.0795 9.07966 11.3333 10.0002 11.3333C10.9207 11.3333 11.6668 12.0795 11.6668 13Z" stroke="#666D80" stroke-width="1.25" stroke-linecap="round"/>
<path id="Vector_2" d="M5 10.5C5 7.73857 7.23857 5.5 10 5.5C10.9107 5.5 11.7646 5.74348 12.5 6.16891" stroke="#666D80" stroke-width="1.25" stroke-linecap="round"/>
<path id="Vector_3" d="M2.0835 10.5C2.0835 6.76809 2.0835 4.90212 3.24286 3.74274C4.40224 2.58337 6.26821 2.58337 10.0002 2.58337C13.7321 2.58337 15.5981 2.58337 16.7575 3.74274C17.9168 4.90212 17.9168 6.76809 17.9168 10.5C17.9168 14.232 17.9168 16.098 16.7575 17.2574C15.5981 18.4167 13.7321 18.4167 10.0002 18.4167C6.26821 18.4167 4.40224 18.4167 3.24286 17.2574C2.0835 16.098 2.0835 14.232 2.0835 10.5Z" stroke="#666D80" stroke-width="1.25"/>
</g>
</svg>
