<svg width="20" height="20" viewBox="0 0 20 20" fill="none" xmlns="http://www.w3.org/2000/svg">
<g id="link-04">
<path id="Vector" d="M8.3335 11.0242C8.4515 11.2175 8.59158 11.4004 8.75366 11.569C9.75991 12.6163 11.2937 12.78 12.4648 12.0602C12.6818 11.9268 12.8863 11.7631 13.0728 11.569L15.7723 8.75954C16.965 7.51824 16.965 5.50568 15.7723 4.26436C14.5796 3.02304 12.6458 3.02305 11.4531 4.26436L10.8585 4.88319" stroke="#666D80" stroke-width="1.25" stroke-linecap="round"/>
<path id="Vector_2" d="M9.14208 15.1167L8.54725 15.7357C7.35455 16.977 5.42076 16.977 4.22804 15.7357C3.03531 14.4943 3.03531 12.4818 4.22804 11.2405L6.92756 8.431C8.12027 7.18967 10.0541 7.18966 11.2467 8.431C11.4088 8.59958 11.5488 8.7825 11.6668 8.97566" stroke="#666D80" stroke-width="1.25" stroke-linecap="round"/>
</g>
</svg>
