<svg width="20" height="20" viewBox="0 0 20 20" fill="none" xmlns="http://www.w3.org/2000/svg">
<g id="location-08">
<path id="Vector" d="M15.7592 15C16.5207 16.14 16.8429 16.8358 16.5722 17.4166C16.539 17.4878 16.5001 17.5566 16.4559 17.6222C15.9772 18.3333 14.7397 18.3333 12.265 18.3333H7.73535C5.26059 18.3333 4.0232 18.3333 3.54442 17.6222C3.5002 17.5566 3.46132 17.4878 3.42812 17.4166C3.1574 16.8358 3.47955 16.14 4.24112 15" stroke="#666D80" stroke-width="1.25" stroke-linecap="round" stroke-linejoin="round"/>
<path id="Vector_2" d="M12.5 7.91663C12.5 9.29738 11.3807 10.4166 10 10.4166C8.61925 10.4166 7.5 9.29738 7.5 7.91663C7.5 6.53592 8.61925 5.41663 10 5.41663C11.3807 5.41663 12.5 6.53592 12.5 7.91663Z" stroke="#666D80" stroke-width="1.25"/>
<path id="Vector_3" d="M10 1.66663C13.3823 1.66663 16.25 4.52332 16.25 7.98904C16.25 11.51 13.3357 13.9808 10.6437 15.661C10.4476 15.7739 10.2257 15.8333 10 15.8333C9.77425 15.8333 9.55242 15.7739 9.35625 15.661C6.66937 13.9644 3.75 11.5221 3.75 7.98904C3.75 4.52332 6.61767 1.66663 10 1.66663Z" stroke="#666D80" stroke-width="1.25"/>
</g>
</svg>
