<svg width="30" height="30" viewBox="0 0 30 30" fill="none" xmlns="http://www.w3.org/2000/svg">
<path d="M14.375 3.75C8.77707 3.75 5.97811 3.75 4.23905 5.48905C2.5 7.22811 2.5 10.0271 2.5 15.625C2.5 21.2229 2.5 24.0219 4.23905 25.761C5.97811 27.5 8.77707 27.5 14.375 27.5C19.9729 27.5 22.7719 27.5 24.511 25.761C26.25 24.0219 26.25 21.2229 26.25 15.625V11.25" stroke="#C1C7D0" stroke-width="1.875" stroke-linecap="round"/>
<path d="M2.5 17.6692C3.27377 17.5568 4.05605 17.5013 4.83964 17.5033C8.15456 17.4332 11.3883 18.4661 13.9639 20.4177C16.3525 22.2276 18.0309 24.7186 18.75 27.5" stroke="#C1C7D0" stroke-width="1.875" stroke-linejoin="round"/>
<path d="M26.25 21.1203C24.7807 20.3762 23.261 19.9986 21.7327 20.0002C19.4181 19.9911 17.1269 20.8417 15 22.5001" stroke="#C1C7D0" stroke-width="1.875" stroke-linejoin="round"/>
<path d="M17.5 7.5C17.5 7.5 18.75 7.5 20 10C20 10 23.9706 3.75 27.5 2.5" stroke="#0062FF" stroke-width="1.875" stroke-linecap="round" stroke-linejoin="round"/>
</svg>
