<svg width="40" height="40" viewBox="0 0 40 40" fill="none" xmlns="http://www.w3.org/2000/svg">
<path d="M23.5117 14.152L24.6798 12.9839C25.325 12.3387 26.371 12.3387 27.0161 12.9839C27.6612 13.629 27.6612 14.675 27.0161 15.3201L25.848 16.4883M23.5117 14.152L19.1501 18.5136C18.2791 19.3847 17.8435 19.8202 17.5469 20.3509C17.2504 20.8817 16.952 22.1349 16.6666 23.3333C17.865 23.048 19.1183 22.7496 19.649 22.453C20.1798 22.1564 20.6153 21.7209 21.4864 20.8498L25.848 16.4883M23.5117 14.152L25.848 16.4883" stroke="#666D80" stroke-width="1.5" stroke-linecap="round" stroke-linejoin="round"/>
<path d="M27.5 20C27.5 23.5355 27.5 25.3033 26.4017 26.4017C25.3033 27.5 23.5355 27.5 20 27.5C16.4645 27.5 14.6967 27.5 13.5983 26.4017C12.5 25.3033 12.5 23.5355 12.5 20C12.5 16.4645 12.5 14.6967 13.5983 13.5983C14.6967 12.5 16.4645 12.5 20 12.5" stroke="#666D80" stroke-width="1.5" stroke-linecap="round"/>
</svg>
