<svg width="20" height="20" viewBox="0 0 20 20" fill="none" xmlns="http://www.w3.org/2000/svg">
<path d="M15 6.66668H16.6667C17.1269 6.66668 17.5 7.03978 17.5 7.50001V17.5C17.5 17.9603 17.1269 18.3333 16.6667 18.3333H3.33333C2.8731 18.3333 2.5 17.9603 2.5 17.5V7.50001C2.5 7.03978 2.8731 6.66668 3.33333 6.66668H5V5.83334C5 3.07192 7.23857 0.833344 10 0.833344C12.7614 0.833344 15 3.07192 15 5.83334V6.66668ZM13.3333 6.66668V5.83334C13.3333 3.99239 11.8409 2.50001 10 2.50001C8.15905 2.50001 6.66667 3.99239 6.66667 5.83334V6.66668H13.3333ZM9.16667 11.6667V13.3333H10.8333V11.6667H9.16667ZM5.83333 11.6667V13.3333H7.5V11.6667H5.83333ZM12.5 11.6667V13.3333H14.1667V11.6667H12.5Z" fill="#0062FF"/>
</svg>
