<svg width="20" height="20" viewBox="0 0 20 20" fill="none" xmlns="http://www.w3.org/2000/svg">
<path d="M15 6.66667H16.6667C17.1269 6.66667 17.5 7.03977 17.5 7.5V17.5C17.5 17.9603 17.1269 18.3333 16.6667 18.3333H3.33333C2.8731 18.3333 2.5 17.9603 2.5 17.5V7.5C2.5 7.03977 2.8731 6.66667 3.33333 6.66667H5V5.83334C5 3.07191 7.23857 0.833336 10 0.833336C12.7614 0.833336 15 3.07191 15 5.83334V6.66667ZM4.16667 8.33334V16.6667H15.8333V8.33334H4.16667ZM9.16667 11.6667H10.8333V13.3333H9.16667V11.6667ZM5.83333 11.6667H7.5V13.3333H5.83333V11.6667ZM12.5 11.6667H14.1667V13.3333H12.5V11.6667ZM13.3333 6.66667V5.83334C13.3333 3.99239 11.8409 2.5 10 2.5C8.15905 2.5 6.66667 3.99239 6.66667 5.83334V6.66667H13.3333Z" fill="#818898"/>
</svg>
