<svg width="20" height="20" viewBox="0 0 20 20" fill="none" xmlns="http://www.w3.org/2000/svg">
<path d="M9.99996 6.25004C9.99996 7.86087 8.69413 9.16671 7.08329 9.16671C5.47246 9.16671 4.16663 7.86087 4.16663 6.25004C4.16663 4.63921 5.47246 3.33337 7.08329 3.33337C8.69413 3.33337 9.99996 4.63921 9.99996 6.25004Z" stroke="#36394A" stroke-width="1.125"/>
<path d="M11.25 9.16671C12.8608 9.16671 14.1667 7.86087 14.1667 6.25004C14.1667 4.63921 12.8608 3.33337 11.25 3.33337" stroke="#36394A" stroke-width="1.125" stroke-linecap="round"/>
<path d="M10.9524 16.6666H3.21424C2.35952 16.6666 1.66663 16.027 1.66663 15.238C1.66663 13.2656 3.39886 11.6666 5.53568 11.6666H8.63087C9.50187 11.6666 10.3057 11.9323 10.9524 12.3806" stroke="#36394A" stroke-width="1.125" stroke-linecap="round" stroke-linejoin="round"/>
<path d="M15.8334 11.6666V16.6666M18.3334 14.1666H13.3334" stroke="#36394A" stroke-width="1.125" stroke-linecap="round"/>
</svg>
