<svg width="27" height="28" viewBox="0 0 27 28" fill="none" xmlns="http://www.w3.org/2000/svg">
<path d="M16.1831 14.9787C16.0174 15.6641 15.2344 16.1486 13.6683 17.1174C12.1544 18.0539 11.3975 18.5222 10.7874 18.334C10.5352 18.2561 10.3054 18.1083 10.1201 17.9047C9.67187 17.4123 9.67188 16.4571 9.67188 14.5469C9.67188 12.6366 9.67187 11.6814 10.1201 11.189C10.3054 10.9854 10.5352 10.8376 10.7874 10.7598C11.3975 10.5716 12.1544 11.0398 13.6683 11.9763C15.2344 12.9452 16.0174 13.4296 16.1831 14.1151C16.2514 14.398 16.2514 14.6957 16.1831 14.9787Z" stroke="#084BC5" stroke-width="1.64062" stroke-linejoin="round"/>
<path d="M23.3412 12.9062C23.3437 13.4204 23.3438 13.9664 23.3438 14.5469C23.3438 19.445 23.3438 21.8941 21.8221 23.4159C20.3004 24.9375 17.8513 24.9375 12.9531 24.9375C8.05494 24.9375 5.60585 24.9375 4.08417 23.4159C2.5625 21.8941 2.5625 19.445 2.5625 14.5469C2.5625 9.64869 2.5625 7.1996 4.08417 5.67792C5.60585 4.15625 8.05494 4.15625 12.9531 4.15625C13.5336 4.15625 14.0796 4.15625 14.5938 4.15878" stroke="#084BC5" stroke-width="2.1875" stroke-linecap="round"/>
<path d="M20.6094 3.0625L20.8915 3.82488C21.2614 4.82455 21.4463 5.3244 21.811 5.68902C22.1756 6.05365 22.6755 6.23861 23.6752 6.60853L24.4375 6.89062L23.6752 7.17272C22.6755 7.54264 22.1756 7.72761 21.811 8.09223C21.4463 8.45685 21.2614 8.9567 20.8915 9.95637L20.6094 10.7188L20.3273 9.95637C19.9574 8.9567 19.7724 8.45685 19.4078 8.09223C19.0431 7.72761 18.5433 7.54264 17.5436 7.17272L16.7812 6.89062L17.5436 6.60853C18.5433 6.23861 19.0431 6.05365 19.4078 5.68902C19.7724 5.3244 19.9574 4.82455 20.3273 3.82488L20.6094 3.0625Z" stroke="#084BC5" stroke-width="1.64062" stroke-linejoin="round"/>
</svg>
