<svg width="20" height="20" viewBox="0 0 20 20" fill="none" xmlns="http://www.w3.org/2000/svg">
<path d="M10.4167 1.66675H10.6439C13.3616 1.66675 14.7204 1.66675 15.6641 2.33161C15.9345 2.52211 16.1745 2.74801 16.3769 3.00249C17.0834 3.89064 17.0834 5.16955 17.0834 7.72736V9.84858C17.0834 12.3179 17.0834 13.5525 16.6926 14.5386C16.0644 16.1239 14.7358 17.3743 13.0514 17.9656C12.0037 18.3334 10.6919 18.3334 8.0682 18.3334C6.56898 18.3334 5.81937 18.3334 5.22067 18.1232C4.25818 17.7854 3.49898 17.0708 3.13999 16.165C2.91669 15.6015 2.91669 14.896 2.91669 13.4849V10.0001" stroke="white" stroke-width="1.5" stroke-linecap="round" stroke-linejoin="round"/>
<path d="M17.0833 10C17.0833 11.5341 15.8397 12.7777 14.3056 12.7777C13.7508 12.7777 13.0967 12.6806 12.5572 12.8251C12.0779 12.9535 11.7035 13.3279 11.5751 13.8072C11.4306 14.3467 11.5277 15.0008 11.5277 15.5556C11.5277 17.0897 10.2841 18.3333 8.75 18.3333" stroke="white" stroke-width="1.5" stroke-linecap="round" stroke-linejoin="round"/>
<path d="M3.75 3.75008C4.15961 3.32866 5.24981 1.66675 5.83333 1.66675M5.83333 1.66675C6.41686 1.66675 7.50706 3.32866 7.91667 3.75008M5.83333 1.66675V8.33341" stroke="white" stroke-width="1.5" stroke-linecap="round" stroke-linejoin="round"/>
</svg>
