<svg width="20" height="20" viewBox="0 0 20 20" fill="none" xmlns="http://www.w3.org/2000/svg">
<path d="M14.1667 1.66663V3.33329M10 1.66663V3.33329M5.83333 1.66663V3.33329" stroke="#36394A" stroke-width="1.125" stroke-linecap="round" stroke-linejoin="round"/>
<path d="M2.91667 8.33333C2.91667 5.58347 2.91667 4.20854 3.77094 3.35427C4.62521 2.5 6.00014 2.5 8.75 2.5H11.25C13.9998 2.5 15.3747 2.5 16.2291 3.35427C17.0833 4.20854 17.0833 5.58347 17.0833 8.33333V12.5C17.0833 15.2498 17.0833 16.6247 16.2291 17.4791C15.3747 18.3333 13.9998 18.3333 11.25 18.3333H8.75C6.00014 18.3333 4.62521 18.3333 3.77094 17.4791C2.91667 16.6247 2.91667 15.2498 2.91667 12.5V8.33333Z" stroke="#36394A" stroke-width="1.125" stroke-linecap="round" stroke-linejoin="round"/>
<path d="M11.25 13.3334H14.1667" stroke="#36394A" stroke-width="1.125" stroke-linecap="round"/>
<path d="M11.25 7.5H14.1667" stroke="#36394A" stroke-width="1.125" stroke-linecap="round"/>
<path d="M5.83333 8.33329C5.83333 8.33329 6.25 8.33329 6.66667 9.16663C6.66667 9.16663 7.9902 7.08329 9.16667 6.66663" stroke="#36394A" stroke-width="1.125" stroke-linecap="round" stroke-linejoin="round"/>
<path d="M5.83333 14.1667C5.83333 14.1667 6.25 14.1667 6.66667 15C6.66667 15 7.9902 12.9167 9.16667 12.5" stroke="#36394A" stroke-width="1.125" stroke-linecap="round" stroke-linejoin="round"/>
</svg>
