<svg width="30" height="30" viewBox="0 0 30 30" fill="none" xmlns="http://www.w3.org/2000/svg">
<path d="M13.75 27.5L11.902 24.5576C10.6148 22.5081 9.97115 21.4834 8.95066 21.2991C7.2894 20.9991 5.57242 22.1306 4.375 23.1362" stroke="#C1C7D0" stroke-width="1.65957"/>
<path d="M4.375 11.25V20.0349C4.375 21.5384 4.375 22.2901 4.74838 22.8942C5.12175 23.4984 5.79414 23.8346 7.13894 24.507L12.0693 26.9721C13.1203 27.4976 13.1304 27.5 14.3054 27.5H18.125C21.6605 27.5 23.4283 27.5 24.5266 26.4016C25.625 25.3032 25.625 23.5355 25.625 20V11.25C25.625 7.71446 25.625 5.9467 24.5266 4.84835C23.4283 3.75 21.6605 3.75 18.125 3.75H11.875C8.33946 3.75 6.5717 3.75 5.47335 4.84835C4.375 5.9467 4.375 7.71446 4.375 11.25Z" stroke="#C1C7D0" stroke-width="1.65957"/>
<path d="M15 11.25H10M20 17.5H10" stroke="#0676FF" stroke-width="1.65957" stroke-linecap="round" stroke-linejoin="round"/>
<path d="M21.25 2.5V5M15 2.5V5M8.75 2.5V5" stroke="#C1C7D0" stroke-width="1.65957" stroke-linecap="round" stroke-linejoin="round"/>
</svg>
