<svg width="22" height="22" viewBox="0 0 22 22" fill="none" xmlns="http://www.w3.org/2000/svg">
<path d="M11 21C16.5228 21 21 16.5228 21 11C21 5.47715 16.5228 1 11 1C5.47715 1 1 5.47715 1 11C1 16.5228 5.47715 21 11 21Z" stroke="#141B34" stroke-width="1.5"/>
<path d="M15.5 9.2857H7.56622C6.91964 9.2857 6.59635 9.2857 6.51589 9.1093C6.43543 8.93296 6.66404 8.72538 7.12124 8.31022L8.56415 7M6.5 12.7143H14.4338C15.0804 12.7143 15.4037 12.7143 15.4841 12.8907C15.5646 13.067 15.336 13.2746 14.8788 13.6898L13.4358 15" stroke="#141B34" stroke-width="1.5" stroke-linecap="round" stroke-linejoin="round"/>
</svg>
