<svg width="20" height="20" viewBox="0 0 20 20" fill="none" xmlns="http://www.w3.org/2000/svg">
<path d="M14.75 17.7792C13.7734 17.9165 12.4997 17.9165 10.7917 17.9165H9.20837C5.84962 17.9165 4.17024 17.9165 3.12681 16.873C2.08337 15.8296 2.08337 14.1502 2.08337 10.7915V9.20816C2.08337 5.84937 2.08337 4.16999 3.12681 3.12655C4.17024 2.08313 5.84962 2.08313 9.20837 2.08313H10.7917C14.1505 2.08313 15.8299 2.08313 16.8733 3.12655C17.9167 4.16999 17.9167 5.84937 17.9167 9.20816V10.7915C17.9167 11.7983 17.9167 12.6542 17.8886 13.3873C17.866 13.9749 17.8548 14.2687 17.6323 14.3784C17.4098 14.4882 17.161 14.3122 16.6632 13.96L15.5417 13.1665" stroke="#36394A" stroke-width="1.125" stroke-linecap="round" stroke-linejoin="round"/>
<path d="M12.4544 10.329C12.3071 10.8513 11.611 11.2204 10.219 11.9585C8.87329 12.672 8.20046 13.0289 7.65823 12.8855C7.43404 12.8261 7.22979 12.7135 7.06506 12.5584C6.66663 12.1832 6.66663 11.4555 6.66663 10C6.66663 8.54462 6.66663 7.81686 7.06506 7.44166C7.22979 7.28655 7.43404 7.17394 7.65823 7.11465C8.20046 6.97124 8.87329 7.32801 10.219 8.04156C11.611 8.77971 12.3071 9.14879 12.4544 9.67104C12.5151 9.88662 12.5151 10.1135 12.4544 10.329Z" stroke="#36394A" stroke-width="1.125" stroke-linejoin="round"/>
</svg>
